<mxfile modified="2023-08-30T14:05:13.489Z" host="app.diagrams.net" agent="Mozilla/5.0 (Windows NT 10.0; Win64; x64) AppleWebKit/537.36 (KHTML, like Gecko) Chrome/116.0.0.0 Safari/537.36" etag="3PjY0s5wUl_ObCd17SPv" version="21.6.9" type="github">
  <diagram id="FEKjINcDisIPV5KZee3t" name="Page-1">
    <mxGraphModel dx="1615" dy="900" grid="1" gridSize="10" guides="1" tooltips="1" connect="1" arrows="1" fold="1" page="1" pageScale="1" pageWidth="827" pageHeight="1169" math="0" shadow="0">
      <root>
        <mxCell id="0" />
        <mxCell id="1" parent="0" />
        <mxCell id="aELBI8OFU14AnCiIAI6i-1" value="" style="fillColor=#B8FDFF;strokeColor=#6c8ebf;opacity=30;rounded=1;arcSize=2;" parent="1" vertex="1">
          <mxGeometry x="73" y="110" width="1510" height="330" as="geometry" />
        </mxCell>
        <mxCell id="aELBI8OFU14AnCiIAI6i-2" value="" style="fillColor=#9EFFCF;strokeColor=#6c8ebf;opacity=30;rounded=1;arcSize=2;" parent="1" vertex="1">
          <mxGeometry x="70" y="458" width="1520" height="494" as="geometry" />
        </mxCell>
        <mxCell id="aELBI8OFU14AnCiIAI6i-3" value="" style="fillColor=#81E87D;strokeColor=none;opacity=40;rounded=1;arcSize=10;" parent="1" vertex="1">
          <mxGeometry x="110" y="768.5" width="1460" height="174" as="geometry" />
        </mxCell>
        <mxCell id="aELBI8OFU14AnCiIAI6i-4" value="" style="fillColor=#12AAB5;strokeColor=none;opacity=50;rounded=1;" parent="1" vertex="1">
          <mxGeometry x="110" y="668.5" width="1460" height="80" as="geometry" />
        </mxCell>
        <mxCell id="aELBI8OFU14AnCiIAI6i-5" value="" style="fillColor=#158EBA;strokeColor=none;opacity=50;rounded=1;" parent="1" vertex="1">
          <mxGeometry x="110" y="577.5" width="1460" height="80" as="geometry" />
        </mxCell>
        <mxCell id="aELBI8OFU14AnCiIAI6i-6" value="Wants to analize the data coming from drivers that search parking" style="rounded=1;fillColor=#23445D;gradientColor=none;strokeColor=none;fontColor=#FFFFFF;fontStyle=0;fontFamily=Tahoma;fontSize=23;whiteSpace=wrap;" parent="1" vertex="1">
          <mxGeometry x="1113" y="468" width="360" height="80" as="geometry" />
        </mxCell>
        <mxCell id="aELBI8OFU14AnCiIAI6i-7" value="Wants to analize the data coming from parking lots" style="rounded=1;fillColor=#23445D;gradientColor=none;strokeColor=none;fontColor=#FFFFFF;fontStyle=0;fontFamily=Tahoma;fontSize=23;whiteSpace=wrap;" parent="1" vertex="1">
          <mxGeometry x="473" y="468" width="437" height="80" as="geometry" />
        </mxCell>
        <mxCell id="aELBI8OFU14AnCiIAI6i-9" value="He is searching for better ways to maximize the parking space" style="rounded=1;fillColor=#23445D;gradientColor=none;strokeColor=none;fontColor=#FFFFFF;fontStyle=0;fontFamily=Tahoma;fontSize=20;whiteSpace=wrap;" parent="1" vertex="1">
          <mxGeometry x="362" y="672" width="268" height="72" as="geometry" />
        </mxCell>
        <mxCell id="aELBI8OFU14AnCiIAI6i-11" value="Wants to know how the flow of cars does during the day" style="rounded=1;fillColor=#23445D;gradientColor=none;strokeColor=none;fontColor=#FFFFFF;fontStyle=0;fontFamily=Tahoma;fontSize=20;whiteSpace=wrap;" parent="1" vertex="1">
          <mxGeometry x="723" y="593" width="267" height="60" as="geometry" />
        </mxCell>
        <mxCell id="aELBI8OFU14AnCiIAI6i-12" value="Wants to implement a dynamic rate depending of the part of the city that the user wants to park" style="rounded=1;fillColor=#23445D;gradientColor=none;strokeColor=none;fontColor=#FFFFFF;fontStyle=0;fontFamily=Tahoma;fontSize=20;whiteSpace=wrap;" parent="1" vertex="1">
          <mxGeometry x="1037" y="675" width="317" height="68" as="geometry" />
        </mxCell>
        <mxCell id="aELBI8OFU14AnCiIAI6i-13" value="He wants to know where are the most drivers in the city" style="rounded=1;fillColor=#23445D;gradientColor=none;strokeColor=none;fontColor=#FFFFFF;fontStyle=0;fontFamily=Tahoma;fontSize=20;whiteSpace=wrap;" parent="1" vertex="1">
          <mxGeometry x="1290" y="582" width="243" height="72" as="geometry" />
        </mxCell>
        <mxCell id="aELBI8OFU14AnCiIAI6i-14" value="" style="edgeStyle=elbowEdgeStyle;elbow=vertical;strokeWidth=2;rounded=0;entryX=0.5;entryY=0;exitX=0.5;exitY=1;" parent="1" source="aELBI8OFU14AnCiIAI6i-7" target="aELBI8OFU14AnCiIAI6i-9" edge="1">
          <mxGeometry x="-33" y="267.5" width="100" height="100" as="geometry">
            <mxPoint x="-33" y="367.5" as="sourcePoint" />
            <mxPoint x="472" y="587.5000000000001" as="targetPoint" />
            <Array as="points">
              <mxPoint x="560" y="571.5" />
            </Array>
          </mxGeometry>
        </mxCell>
        <mxCell id="aELBI8OFU14AnCiIAI6i-15" value="" style="edgeStyle=elbowEdgeStyle;elbow=vertical;strokeWidth=2;rounded=0;entryX=0.5;entryY=0;exitX=0.5;exitY=1;" parent="1" source="aELBI8OFU14AnCiIAI6i-7" target="aELBI8OFU14AnCiIAI6i-11" edge="1">
          <mxGeometry x="-33" y="267.5" width="100" height="100" as="geometry">
            <mxPoint x="-33" y="367.5" as="sourcePoint" />
            <mxPoint x="822" y="587.5" as="targetPoint" />
            <Array as="points">
              <mxPoint x="647" y="571.5" />
            </Array>
          </mxGeometry>
        </mxCell>
        <mxCell id="aELBI8OFU14AnCiIAI6i-16" value="" style="edgeStyle=elbowEdgeStyle;elbow=vertical;strokeWidth=2;rounded=0;exitX=0.5;exitY=1;entryX=0.5;entryY=0;entryDx=0;entryDy=0;" parent="1" target="aELBI8OFU14AnCiIAI6i-12" edge="1">
          <mxGeometry x="-187" y="267.5" width="100" height="100" as="geometry">
            <mxPoint x="1293" y="542" as="sourcePoint" />
            <mxPoint x="1150" y="672" as="targetPoint" />
            <Array as="points">
              <mxPoint x="1150" y="564" />
              <mxPoint x="1230" y="564" />
              <mxPoint x="1220" y="554" />
              <mxPoint x="1230" y="555.5" />
            </Array>
          </mxGeometry>
        </mxCell>
        <mxCell id="aELBI8OFU14AnCiIAI6i-17" value="" style="edgeStyle=elbowEdgeStyle;elbow=vertical;strokeWidth=2;rounded=0;exitX=0.5;exitY=1;entryX=0.5;entryY=0;entryDx=0;entryDy=0;" parent="1" target="aELBI8OFU14AnCiIAI6i-13" edge="1">
          <mxGeometry x="-187" y="267.5" width="100" height="100" as="geometry">
            <mxPoint x="1293" y="542" as="sourcePoint" />
            <mxPoint x="1422" y="576" as="targetPoint" />
            <Array as="points">
              <mxPoint x="1422" y="564" />
              <mxPoint x="1400" y="564" />
              <mxPoint x="1310" y="555.5" />
            </Array>
          </mxGeometry>
        </mxCell>
        <mxCell id="aELBI8OFU14AnCiIAI6i-18" value="&lt;h1&gt;&lt;font style=&quot;font-size: 41px&quot;&gt;Persona Goals&lt;/font&gt;&lt;/h1&gt;&lt;p&gt;What does the persona wants? (Desires,&amp;nbsp; motivations, etc.)&lt;/p&gt;" style="text;html=1;strokeColor=none;fillColor=none;spacing=5;spacingTop=-20;whiteSpace=wrap;overflow=hidden;rounded=0;fontFamily=Tahoma;align=center;" parent="1" vertex="1">
          <mxGeometry x="87" y="457.5" width="330" height="120" as="geometry" />
        </mxCell>
        <mxCell id="aELBI8OFU14AnCiIAI6i-19" value="&lt;h1 style=&quot;font-size: 26px;&quot;&gt;&lt;font style=&quot;font-size: 26px;&quot;&gt;Needs &amp;amp; Expectations&lt;/font&gt;&lt;/h1&gt;" style="text;html=1;strokeColor=none;fillColor=none;spacing=5;spacingTop=-20;whiteSpace=wrap;overflow=hidden;rounded=0;fontFamily=Tahoma;align=center;fontSize=26;" parent="1" vertex="1">
          <mxGeometry x="143.5" y="572" width="217" height="81" as="geometry" />
        </mxCell>
        <mxCell id="aELBI8OFU14AnCiIAI6i-20" value="&lt;h1 style=&quot;font-size: 26px&quot;&gt;&lt;font style=&quot;font-size: 26px&quot;&gt;Desires &amp;amp; Motivations&lt;/font&gt;&lt;/h1&gt;" style="text;html=1;strokeColor=none;fillColor=none;spacing=5;spacingTop=-20;whiteSpace=wrap;overflow=hidden;rounded=0;fontFamily=Tahoma;align=center;fontSize=26;" parent="1" vertex="1">
          <mxGeometry x="143.5" y="667" width="217" height="81" as="geometry" />
        </mxCell>
        <mxCell id="aELBI8OFU14AnCiIAI6i-22" value="&lt;h1 style=&quot;font-size: 50px;&quot;&gt;&lt;font style=&quot;font-size: 50px;&quot;&gt;Why?&lt;/font&gt;&lt;/h1&gt;" style="text;html=1;strokeColor=none;fillColor=none;spacing=5;spacingTop=-20;whiteSpace=wrap;overflow=hidden;rounded=0;fontFamily=Tahoma;align=center;fontSize=50;verticalAlign=middle;" parent="1" vertex="1">
          <mxGeometry x="144" y="772" width="217" height="170" as="geometry" />
        </mxCell>
        <mxCell id="E5aZ5n-RW7rCbYKdpqWa-4" style="edgeStyle=orthogonalEdgeStyle;rounded=0;orthogonalLoop=1;jettySize=auto;html=1;entryX=1;entryY=0.5;entryDx=0;entryDy=0;strokeWidth=2;" parent="1" source="aELBI8OFU14AnCiIAI6i-23" target="aELBI8OFU14AnCiIAI6i-29" edge="1">
          <mxGeometry relative="1" as="geometry" />
        </mxCell>
        <mxCell id="E5aZ5n-RW7rCbYKdpqWa-5" style="edgeStyle=orthogonalEdgeStyle;rounded=0;orthogonalLoop=1;jettySize=auto;html=1;entryX=1;entryY=0.5;entryDx=0;entryDy=0;strokeWidth=2;" parent="1" edge="1">
          <mxGeometry relative="1" as="geometry">
            <mxPoint x="1002.0285714285715" y="930" as="sourcePoint" />
            <mxPoint x="851" y="1224.5" as="targetPoint" />
            <Array as="points">
              <mxPoint x="1000" y="931" />
              <mxPoint x="1000" y="1225" />
            </Array>
          </mxGeometry>
        </mxCell>
        <mxCell id="E5aZ5n-RW7rCbYKdpqWa-6" style="edgeStyle=orthogonalEdgeStyle;rounded=0;orthogonalLoop=1;jettySize=auto;html=1;entryX=0;entryY=0.5;entryDx=0;entryDy=0;strokeWidth=2;exitX=0.5;exitY=1;exitDx=0;exitDy=0;" parent="1" edge="1">
          <mxGeometry relative="1" as="geometry">
            <mxPoint x="1001" y="932" as="sourcePoint" />
            <mxPoint x="1100" y="1146" as="targetPoint" />
            <Array as="points">
              <mxPoint x="1001" y="1146" />
            </Array>
          </mxGeometry>
        </mxCell>
        <mxCell id="aELBI8OFU14AnCiIAI6i-23" value="It is important for him to organize the information and develop features that do matter to the users" style="rounded=1;fillColor=#12AAB5;strokeColor=#6c8ebf;fontColor=#000000;fontStyle=0;fontFamily=Tahoma;fontSize=23;labelBackgroundColor=none;opacity=60;arcSize=6;whiteSpace=wrap;" parent="1" vertex="1">
          <mxGeometry x="761" y="781" width="480" height="149" as="geometry" />
        </mxCell>
        <mxCell id="aELBI8OFU14AnCiIAI6i-24" value="" style="fillColor=#FFBF87;strokeColor=#d79b00;opacity=30;rounded=1;arcSize=2;movable=1;resizable=1;rotatable=1;deletable=1;editable=1;locked=0;connectable=1;" parent="1" vertex="1">
          <mxGeometry x="70" y="972.5" width="1520" height="420" as="geometry" />
        </mxCell>
        <mxCell id="aELBI8OFU14AnCiIAI6i-25" value="&lt;h1&gt;&lt;font style=&quot;font-size: 60px&quot;&gt;Persona &lt;/font&gt;&lt;font style=&quot;font-size: 40px&quot;&gt;Pain Points&lt;/font&gt;&lt;/h1&gt;&lt;p&gt;What difficulties does the Persona have? What impediments?&lt;/p&gt;" style="text;html=1;strokeColor=none;fillColor=none;spacing=5;spacingTop=-20;whiteSpace=wrap;overflow=hidden;rounded=0;fontFamily=Tahoma;align=center;verticalAlign=middle;" parent="1" vertex="1">
          <mxGeometry x="91" y="971.5" width="270" height="420" as="geometry" />
        </mxCell>
        <mxCell id="aELBI8OFU14AnCiIAI6i-28" value="Data must be updated constantly if not the analisis will be wrong" style="rounded=1;fillColor=#F86459;gradientColor=none;strokeColor=#B85450;fontColor=#000000;fontStyle=0;fontFamily=Tahoma;fontSize=20;whiteSpace=wrap;labelBackgroundColor=none;opacity=80;" parent="1" vertex="1">
          <mxGeometry x="390" y="1190" width="460" height="69" as="geometry" />
        </mxCell>
        <mxCell id="aELBI8OFU14AnCiIAI6i-29" value="Data can be hard to analize if the quality of it is not good" style="rounded=1;fillColor=#F86459;gradientColor=none;strokeColor=#B85450;fontColor=#000000;fontStyle=0;fontFamily=Tahoma;fontSize=20;whiteSpace=wrap;labelBackgroundColor=none;opacity=80;" parent="1" vertex="1">
          <mxGeometry x="390" y="1030" width="460" height="77" as="geometry" />
        </mxCell>
        <mxCell id="aELBI8OFU14AnCiIAI6i-36" value="" style="edgeStyle=elbowEdgeStyle;elbow=vertical;strokeWidth=2;rounded=0;entryX=0.5;entryY=0;exitX=0.5;exitY=1;" parent="1" edge="1">
          <mxGeometry x="620" y="851.5" width="100" height="100" as="geometry">
            <mxPoint x="1421.4999999999998" y="652.9999999999999" as="sourcePoint" />
            <mxPoint x="1001" y="780" as="targetPoint" />
            <Array as="points">
              <mxPoint x="1380" y="760.5" />
            </Array>
          </mxGeometry>
        </mxCell>
        <mxCell id="aELBI8OFU14AnCiIAI6i-37" value="" style="edgeStyle=elbowEdgeStyle;elbow=vertical;strokeWidth=2;rounded=0;exitX=0.5;exitY=1;" parent="1" edge="1">
          <mxGeometry x="630" y="861.5" width="100" height="100" as="geometry">
            <mxPoint x="1195" y="743" as="sourcePoint" />
            <mxPoint x="1001" y="780" as="targetPoint" />
            <Array as="points">
              <mxPoint x="1419.5" y="761.5" />
              <mxPoint x="1389.5" y="771.5" />
            </Array>
          </mxGeometry>
        </mxCell>
        <mxCell id="aELBI8OFU14AnCiIAI6i-38" value="" style="edgeStyle=elbowEdgeStyle;elbow=vertical;strokeWidth=2;rounded=0;entryX=0.5;entryY=0;exitX=0.5;exitY=1;entryDx=0;entryDy=0;exitDx=0;exitDy=0;" parent="1" source="aELBI8OFU14AnCiIAI6i-9" edge="1">
          <mxGeometry x="-18" y="985.5" width="100" height="100" as="geometry">
            <mxPoint x="472" y="742.9999999999999" as="sourcePoint" />
            <mxPoint x="1001" y="780" as="targetPoint" />
            <Array as="points">
              <mxPoint x="570" y="760.5" />
              <mxPoint x="742" y="894.5" />
            </Array>
          </mxGeometry>
        </mxCell>
        <mxCell id="aELBI8OFU14AnCiIAI6i-39" value="" style="edgeStyle=elbowEdgeStyle;elbow=vertical;strokeWidth=2;rounded=0;" parent="1" edge="1">
          <mxGeometry x="-27" y="960" width="100" height="100" as="geometry">
            <mxPoint x="899" y="658.5" as="sourcePoint" />
            <mxPoint x="1001" y="780" as="targetPoint" />
            <Array as="points">
              <mxPoint x="950" y="761" />
              <mxPoint x="769" y="761" />
              <mxPoint x="749" y="761" />
              <mxPoint x="749" y="762.5" />
            </Array>
          </mxGeometry>
        </mxCell>
        <mxCell id="aELBI8OFU14AnCiIAI6i-41" value="He wants organized and valid data so he can analise it correctly" style="rounded=1;fillColor=#5490DE;strokeColor=none;fontColor=#000000;fontStyle=0;fontFamily=Tahoma;fontSize=20;whiteSpace=wrap;spacingLeft=10;spacingRight=10;opacity=80;" parent="1" vertex="1">
          <mxGeometry x="1100" y="1090" width="460" height="110" as="geometry" />
        </mxCell>
        <mxCell id="aELBI8OFU14AnCiIAI6i-42" value="&lt;h1&gt;&lt;font style=&quot;font-size: 41px&quot;&gt;Persona&lt;/font&gt;&lt;/h1&gt;&lt;p&gt;Who is the persona?&lt;/p&gt;" style="text;html=1;strokeColor=none;fillColor=none;spacing=5;spacingTop=-20;whiteSpace=wrap;overflow=hidden;rounded=0;fontFamily=Tahoma;align=center;" parent="1" vertex="1">
          <mxGeometry x="91" y="115" width="292" height="110" as="geometry" />
        </mxCell>
        <mxCell id="aELBI8OFU14AnCiIAI6i-43" value="" style="fillColor=#158EBA;strokeColor=#6c8ebf;opacity=30;rounded=1;arcSize=2;" parent="1" vertex="1">
          <mxGeometry x="1020" y="140" width="533" height="282" as="geometry" />
        </mxCell>
        <mxCell id="aELBI8OFU14AnCiIAI6i-44" value="&lt;h1 style=&quot;font-size: 26px&quot;&gt;&lt;font style=&quot;font-size: 26px&quot;&gt;Demographics&lt;/font&gt;&lt;/h1&gt;" style="text;html=1;strokeColor=none;fillColor=none;spacing=5;spacingTop=-20;whiteSpace=wrap;overflow=hidden;rounded=0;fontFamily=Tahoma;align=center;fontSize=26;" parent="1" vertex="1">
          <mxGeometry x="1040" y="150" width="229" height="50" as="geometry" />
        </mxCell>
        <mxCell id="aELBI8OFU14AnCiIAI6i-45" value="Passed a BI course" style="rounded=1;fillColor=#275DAD;gradientColor=none;strokeColor=none;fontColor=#FFFFFF;fontStyle=0;fontFamily=Tahoma;fontSize=23;whiteSpace=wrap;" parent="1" vertex="1">
          <mxGeometry x="1080.5" y="239" width="176" height="60" as="geometry" />
        </mxCell>
        <mxCell id="aELBI8OFU14AnCiIAI6i-47" value="Studies Systems Engineering " style="rounded=1;fillColor=#275DAD;gradientColor=none;strokeColor=none;fontColor=#FFFFFF;fontStyle=0;fontFamily=Tahoma;fontSize=23;whiteSpace=wrap;" parent="1" vertex="1">
          <mxGeometry x="1061" y="330" width="215" height="70" as="geometry" />
        </mxCell>
        <mxCell id="aELBI8OFU14AnCiIAI6i-48" value="" style="fillColor=#158EBA;strokeColor=#6c8ebf;opacity=30;rounded=1;arcSize=2;" parent="1" vertex="1">
          <mxGeometry x="383" y="140" width="610" height="280" as="geometry" />
        </mxCell>
        <mxCell id="aELBI8OFU14AnCiIAI6i-49" value="&lt;h1 style=&quot;font-size: 26px&quot;&gt;&lt;font style=&quot;font-size: 26px&quot;&gt;Basic info&lt;/font&gt;&lt;/h1&gt;" style="text;html=1;strokeColor=none;fillColor=none;spacing=5;spacingTop=-20;whiteSpace=wrap;overflow=hidden;rounded=0;fontFamily=Tahoma;align=center;fontSize=26;" parent="1" vertex="1">
          <mxGeometry x="383" y="150" width="229" height="50" as="geometry" />
        </mxCell>
        <mxCell id="aELBI8OFU14AnCiIAI6i-50" value="Works as a data scientist" style="rounded=1;fillColor=#275DAD;gradientColor=none;strokeColor=none;fontColor=#FFFFFF;fontStyle=0;fontFamily=Tahoma;fontSize=23;whiteSpace=wrap;" parent="1" vertex="1">
          <mxGeometry x="598" y="225" width="203" height="65" as="geometry" />
        </mxCell>
        <mxCell id="aELBI8OFU14AnCiIAI6i-51" value="" style="fillColor=#D6D6D6;strokeColor=#6c8ebf;opacity=30;rounded=1;arcSize=2;" parent="1" vertex="1">
          <mxGeometry x="75" y="1410" width="1510" height="330" as="geometry" />
        </mxCell>
        <mxCell id="aELBI8OFU14AnCiIAI6i-52" value="&lt;h1&gt;&lt;font style=&quot;font-size: 40px&quot;&gt;Persona Environment&lt;/font&gt;&lt;/h1&gt;&lt;p&gt;&amp;nbsp;&amp;nbsp;&lt;span&gt;What technological devices does your persona use on a regular basis? What is their technical ability?&lt;/span&gt;&lt;/p&gt;" style="text;html=1;strokeColor=none;fillColor=none;spacing=5;spacingTop=-20;whiteSpace=wrap;overflow=hidden;rounded=0;fontFamily=Tahoma;align=center;verticalAlign=middle;" parent="1" vertex="1">
          <mxGeometry x="91" y="1430" width="282" height="220" as="geometry" />
        </mxCell>
        <mxCell id="aELBI8OFU14AnCiIAI6i-53" value="" style="fillColor=#9C89B8;strokeColor=#6c8ebf;opacity=30;rounded=1;arcSize=2;" parent="1" vertex="1">
          <mxGeometry x="420" y="1430" width="610" height="290" as="geometry" />
        </mxCell>
        <mxCell id="aELBI8OFU14AnCiIAI6i-54" value="&lt;h1 style=&quot;font-size: 26px&quot;&gt;&lt;font style=&quot;font-size: 26px&quot;&gt;Technical ability&lt;/font&gt;&lt;/h1&gt;" style="text;html=1;strokeColor=none;fillColor=none;spacing=5;spacingTop=-20;whiteSpace=wrap;overflow=hidden;rounded=0;fontFamily=Tahoma;align=center;fontSize=26;" parent="1" vertex="1">
          <mxGeometry x="430" y="1440" width="250" height="81" as="geometry" />
        </mxCell>
        <mxCell id="aELBI8OFU14AnCiIAI6i-55" value="" style="fillColor=#9C89B8;strokeColor=#6c8ebf;opacity=30;rounded=1;arcSize=2;" parent="1" vertex="1">
          <mxGeometry x="1060" y="1430" width="500" height="290" as="geometry" />
        </mxCell>
        <mxCell id="aELBI8OFU14AnCiIAI6i-56" value="&lt;h1 style=&quot;font-size: 26px&quot;&gt;&lt;font style=&quot;font-size: 26px&quot;&gt;Devices&lt;/font&gt;&lt;/h1&gt;" style="text;html=1;strokeColor=none;fillColor=none;spacing=5;spacingTop=-20;whiteSpace=wrap;overflow=hidden;rounded=0;fontFamily=Tahoma;align=center;fontSize=26;" parent="1" vertex="1">
          <mxGeometry x="1019" y="1444" width="250" height="81" as="geometry" />
        </mxCell>
        <mxCell id="aELBI8OFU14AnCiIAI6i-61" value="David kotshler" style="rounded=1;fillColor=#275DAD;gradientColor=none;strokeColor=none;fontColor=#FFFFFF;fontStyle=0;fontFamily=Tahoma;fontSize=23;whiteSpace=wrap;" parent="1" vertex="1">
          <mxGeometry x="438" y="318" width="209" height="63" as="geometry" />
        </mxCell>
        <mxCell id="aELBI8OFU14AnCiIAI6i-65" value="Samsung S10E" style="rounded=1;fillColor=#60495A;strokeColor=none;fontColor=#FFFFFF;fontStyle=0;fontFamily=Tahoma;fontSize=20;whiteSpace=wrap;spacingLeft=10;spacingRight=10;opacity=80;" parent="1" vertex="1">
          <mxGeometry x="1110" y="1505" width="200" height="155" as="geometry" />
        </mxCell>
        <mxCell id="aELBI8OFU14AnCiIAI6i-66" value="HP envy x360" style="rounded=1;fillColor=#60495A;strokeColor=none;fontColor=#FFFFFF;fontStyle=0;fontFamily=Tahoma;fontSize=20;whiteSpace=wrap;spacingLeft=10;spacingRight=10;opacity=80;" parent="1" vertex="1">
          <mxGeometry x="1350" y="1505" width="183" height="155" as="geometry" />
        </mxCell>
        <mxCell id="aELBI8OFU14AnCiIAI6i-68" value="Knows about BI" style="rounded=1;fillColor=#60495A;strokeColor=none;fontColor=#FFFFFF;fontStyle=0;fontFamily=Tahoma;fontSize=20;whiteSpace=wrap;spacingLeft=10;spacingRight=10;opacity=80;" parent="1" vertex="1">
          <mxGeometry x="440" y="1500" width="290" height="83" as="geometry" />
        </mxCell>
        <mxCell id="aELBI8OFU14AnCiIAI6i-69" value="Knows how to use a smartphone" style="rounded=1;fillColor=#60495A;strokeColor=none;fontColor=#FFFFFF;fontStyle=0;fontFamily=Tahoma;fontSize=20;whiteSpace=wrap;spacingLeft=10;spacingRight=10;opacity=80;" parent="1" vertex="1">
          <mxGeometry x="768.5" y="1516.5" width="253" height="66" as="geometry" />
        </mxCell>
        <mxCell id="aELBI8OFU14AnCiIAI6i-71" value="Know how the app works" style="rounded=1;fillColor=#60495A;strokeColor=none;fontColor=#FFFFFF;fontStyle=0;fontFamily=Tahoma;fontSize=20;whiteSpace=wrap;spacingLeft=10;spacingRight=10;opacity=80;" parent="1" vertex="1">
          <mxGeometry x="770" y="1630.5" width="250" height="59" as="geometry" />
        </mxCell>
        <mxCell id="aELBI8OFU14AnCiIAI6i-74" value="Knows how to program" style="rounded=1;fillColor=#60495A;strokeColor=none;fontColor=#FFFFFF;fontStyle=0;fontFamily=Tahoma;fontSize=20;whiteSpace=wrap;spacingLeft=10;spacingRight=10;opacity=80;" parent="1" vertex="1">
          <mxGeometry x="460" y="1618" width="243" height="82" as="geometry" />
        </mxCell>
        <mxCell id="aELBI8OFU14AnCiIAI6i-80" value="&lt;font color=&quot;#000000&quot;&gt;Photo&lt;/font&gt;" style="rounded=0;whiteSpace=wrap;html=1;fillColor=#FFFFFF;fontSize=20;fontColor=#FFFFFF;" parent="1" vertex="1">
          <mxGeometry x="144" y="220" width="190" height="190" as="geometry" />
        </mxCell>
        <mxCell id="aELBI8OFU14AnCiIAI6i-81" value="Very passionate about big data" style="rounded=1;fillColor=#275DAD;gradientColor=none;strokeColor=none;fontColor=#FFFFFF;fontStyle=0;fontFamily=Tahoma;fontSize=23;whiteSpace=wrap;" parent="1" vertex="1">
          <mxGeometry x="1329.5" y="239" width="176" height="60" as="geometry" />
        </mxCell>
        <mxCell id="E5aZ5n-RW7rCbYKdpqWa-1" value="" style="shape=image;verticalLabelPosition=bottom;labelBackgroundColor=default;verticalAlign=top;aspect=fixed;imageAspect=0;image=data:image/jpeg,/9j/4AAQSkZJRgABAQAAAQABAAD/2wCEAAoHCBIWEhUVEhIRGBgZGRkZGBIRERESEhESGBUaGRgYGBgcIS4lHB4rHxgYJjgmKy8xNTU1GiQ7QDszPy40NTEBDAwMEA8QHxISHzEhISQ0NDQ0NDQ0NDQ0NDQ0NDQ0NDQ0NDQ0NDQ0NDQ0NDQ0NDQ0NDQ0MTQ0NDQ0NDQ0NDQ0NP/AABEIALcBEwMBIgACEQEDEQH/xAAcAAABBQEBAQAAAAAAAAAAAAAGAgMEBQcBAAj/xAA+EAACAQIDBQQIBAUDBQEAAAABAgADEQQSIQUGMUFRImFxsRMkMnKBkaHBByM0QhRSYtHwsuHxJTNTgpIV/8QAGgEAAwEBAQEAAAAAAAAAAAAAAQIDAAQFBv/EACgRAAICAgIBBAEEAwAAAAAAAAABAhEDMRIhBAUiMkFRExSR8GFxsf/aAAwDAQACEQMRAD8ATuhT/LEM1sBqRM92PtunSpgDjOYnbdeqctMNbuitmoM8dtulTHEXgzjt5Kj6JcecawG7taob1CR5wr2du5TS1wCe+DtmBHD7Lr1jc315tCPZ26qCxfU98KKOHVRoBHgsKiayLhtn00HZUfKSgkWBFBYQCLTto5lniNJggLvYNR4/aAe0xrD/AHrHaHjALaQ1i/Yy0UlYSvcayzrCV7jWMYatLXZHtiVtpa7IH5gmMHyL+UPCDWMXU+MKkH5Q8IMYzifGOKaFucv5a+ELAIJbqVlSkuYgaQsSqpF7iKY7aetIeP2vQooXqVFUd/EnoANSYL1vxEwoJCpWIvbPkFj9ZjBpaIZ1HEiAVfftWH5Y+ZtKTGbyYh/3ZR3R4wcg0aTidsUU9p1+cpcXvhRX2Tc90zerVdjdmJPjFIk6cPjqUuxoxsvdsbzVK11UECUlBCW1nQsXSGs7o4ow0iqikPYvUWkApJtQ3jBEagjBWcIjpWJZYrRhhhIzC5kqpwjKrOfL3JISQm09PEz0TkgWLwGEs4U9bazVNibKprTUhRfwmakfmL7wmtbJX8pfATz6JEtEA4CPKJxRHFEwDwEWFnVWOATBOAToE6BO2hMJyzxGkYxeLVCAeceSqpW95jATvSO0IDY1ASbw63oHbHxgPjKd3Hj174i2N9FfU2ZUb2EMrcdsyrT1qIQOs03Z2VLXA5cdYnexqb0SABe0dIBk1pZbKcBwTI38K3S3jJuGw4BBJ4HlAEPaId6QyjlB3GU2BNwb3l5gN4KaU8uXlKfGY16jXAsJRRlLSBRNq4wiioBsbcjredobfrhAoaVOIokAa/XWPYMWqITqAQxA4lV7RA77CUUON8loKQbVsQFo+iUq7kfm1mVWzMdSiX4KPra8i7MxS0zkKrrc3KqdecgYXeKmXZamFZCAWyq9yR3gCVDbz1XdjTw6BAbWZjmYX4eM4nJuVnQklGhvebCUTUY0gEbVuwAAeeolBsrFsWKP0uD4cRJW1MdnYugIU/tJ1XThKbZ73xCeJ/0mVwyakSkEiJrJGWcpJHSJ7WCNRsaI1lilEXaeAlWMJaNkR5hEEQMzGiIhhHiI28VmIlWJIsI5a5ias429yJka09F2npIUnIt6qe9Nc2Yv5a+EyigL1k96a5s9fy18JyiElRHVESojqiYx0CKAnhOGoo4mYwsCdAkKttKmvFh85WYreamvA38I8YSlpBoRvS9gDKvC7Yy5QW06Ss23tZqunKUhLX4mWj40l2xuJfbb2kr8DAraeIKm/Qy1K9TKXbQizxJdgGqm8Dj/AGiTtqo+huRwEqsYoCyRs5eEXHDkZKyzo4Vm14SWmzxzMfww0kgCeljwQS0VUUMpRA4ARxUjmWdCy6SWhuiFil1EmbLoq9ZFe4U3zWNjbKSQDy6X75Gxi6iPYWpldT4jwuCL/WcOftuvwTfyLrBbLw9Ct6Wo6Atoc7ootawFiedrX7/GRcXsyhVZ9AEzAugYFWKk5T38T8z1lLjabYrNU9FUNuxZKK6BSSMzMRc3voNBcxhtq+jT0BoOll9oKUuf6hqPkZ4zg932XUktroVt18OhAo0woAAI77dJS4Gky1BlQXuO2wLXQkZspvZbA9I0+IzvrzI85e7KptkUubtqNAFUAGw0HE2HEzow45SkkiTkmyxRdJ20URPWnvRVKgoRaetFWnLQhEkRBEdIiSIAMaIjVbhJBEj1FJOgMjklUQN9DKLGakmvQcJmytl/mscvzkQicstUIM2novLOxaAFuF2IS6N8ZoGGAVACYOUq+VQOkXTxzs6r3yCxSYlBK1UAXnaFbONJzE0fyT4RGwF7B8YlAIeIrVmYqg+JlJtIY1bm1x1WGb07MSB3xIsdCPnJ/uceOajJq2PGMmrRl71KjHtM3xiRTEMtu7EDAvTFmHIfugpk5GexiyRlG4lItMjOsatJNURhhDkkCTG7Sk22svbSm26uk5J/ERg3juAkzZa8JDx3ASw2QOEPjRthiENEaR5RG6fCPLPSLHZ0CeE7AKQ8adRPWncYtyJzEo/o2NP2guml9f7zkmm5NpCPZX7YxVPKqO7qwuewxUFb6X11v/eUWKxqFQqFu5bcZFppdnaqSw4HMTck6Zr9wjK4YqSb6L+7r4TzHFWLzY/hkbMGbQDlfUwk2LtDM+RrcOyQOY1/v8oN06vNj8JZYAvcNTUC2uZxpfw5y2OXCSaF5NMLLTssNm4rDGjkqoQ9v+4ALMfAm4kN6TAXsbfzWNvnPVx5FNdFlK9HRhnK5wpy/wA1tIzaH+AoL/8AnAkC+Q/O0AosMnK/8BUrLnZW7j16RqBrcbC172itqbu+ioCpc30zDlrCzclrYUd5bzM5vqlsI3ivnOZ5pfqcfqybk7MxeHW4eApvh3LqCSzDUQFqmH25FTJg3bozGbyZWujTO7b2eibPqLlHZvbuF9JmDCa9vXVVsA7KRqsyFpCDtdgQienZ6UCaRVSJwifmL4x+oInCj8xfGG+hQvqpelbukXYgtmEsaS3pjwkOhTKNf4f2nIKScSusYKxx6l7Tk+b858sza+jrxqoiCtxYwN2/g8lTMBo3HuaGkrNu4XPTbTlceInrek+W37ZPX/CeRU7QAVhrGGkmsJHInuydiMTKnbg7MtyJV7bXsSM/iBgjjTwltshdBKrFcpd7KXQS3hx6bHgi5ThHhGkEdAnY2MdnRPARxF68Bqethxt3wWYjVV7QjvpVvl1J4ZVFyWtew+54DnK2vt0szU6SoupU1NGKqvtG/MC9u9iOAjtNMlLO2jP2VudVp8W8SfqTOPJncZNR/klKbTpFFtPCH0jkKMjMbAG62tqT5/KRDhC5GYhV5Beks8diM9TKPZGgHKw5/O5+Uk7PqU0LPUpq4y2yObAajprfTlOPbEK/D4SmguFHidSfCWFBeZFz/KLDXp48yeUlYzatArmOEpq/7MtRwgY8CUHHw8JQelZ3yE9lRe2guzHU3lIOMZW+1+DKr77LVsUTwPxF8g8P5j3/ACnf41ksc7ZjwFxc/DgB3m/z0lZ6dmICWtwBOijw6+PD7ztrbDxGHqfmKzqQpFemGbDvcA9ioNGtw+wjyzzk90vwuqC5SYb7s7y58PVw9YrmCEoyrlDJbtLx4gkeIPcTKSCdTFFLOuuRlJtzF7MPkTC0y/jO0/yPB9BPsXb1Olhsh9pSbDrc3id4N5FrUAgBvpe44WgyY3UMd4op8vvYzitjDm5k3D7Wq06b00Iytx7r8bSEBG6kjLtdgZIq7UrNTFNqhKD9v+8r2jhiGiUAbnp2emMae4iKOjr4xZMazWIPfN9CBvgTdB4TlaiTw+ka2U90EsZyPZiDTwf1iXolZYRuqNJz5cEJxaoeMmmQIjEJdD3RwjWeA0I7p43iyePOv4LyVxM22nSy1HXv+hkJhLzealaqD1HkZSET6yLtJnOhsiVW3h2JcWlTvD/2/hBP4mYHYjiJf7LGglDV4iEGzBoJ0eJ1AeOi3QR0CNoI8J0NjWeA/wCekoNpbQL3VeViCNLEs1vjoJc45wtNtdSLADiBrr9CIHUqgNRwb6HXrY3P0J+k4fIyNy4r6IzlbLrYtGmou+hNmN7WKg9gX/8ApviI3tDG56hb9qjKg5ADn85DrVbi3x/tIr1wLKBcnvt85zWTJmGKqCeugHMgcYtqvw8JBSpOPWgMOYirz5DlI1M+2zcDYW4ZgO/prOLd3VBw4k9wlkmHueyFNv3MBlXwB0+MxiGhqPw7K9fZ06KOXifpJaVmoKVpO6s3tGm7J87cTFvURPZJdv5zwHuiQspvc8TMYWELZV5s6fElxf7wyMHdh0M+KpIBe2dj4JTdvMCEaLcgdSB9Z2+P1FlYaLzA7q1qiBrgA8iCTI23d3HoUw5a/XS01DZiWpoO4QV/ESrakq9WH01kVmlKVfRrZVbD3QWrSV3Zu0AbA2FjOby7p06FAuha46m94YbpfpKfuDykTfv9I3h95PnJyoFszndjBJVxSI4BFibHgbTTae7OGXhTT/5Ezzcn9Yvut9prk2VuzMznaux6IrP2F49B0E9Jm2j6xU8R/pE7FtiWKYxomdZo3edC7GCfYWI7IHwl8pgPszFZHseB+hhMMaFsWM58y4yNRaRuqdDE0K6sLgxOMeyEyZikxW1qaEgmR6O3ULAA8TaDmKfM7HvPnGqRs6nvHnFj6bivm7vZbk6LTelLhW7/ADEGTNAr7O9LT14aEQM2rhglQqJ142qokiAJSbyt2RL3LBzeh9LR8nUAvQLDVhCfZq6CDFDVhCzZ40Et4/UB46LFRJeHpA9p2yqOJ5m2pCjrK/E1siFuegAPMk6D/OkraiFyHqVSh5BWYsO4KLBTBly8elsSUq6RzeTGfm3UZQUICjllIy+ZlDiMDVolGqrl9KpKqT2gAR7Q/abHh3wp2MMlQVXxDM4UqCFC9liL5vgANLc+N7RGN2atdwDXCojO+bJnNNHtdfaA43trppOCTly0LFLi232DbPzkegruxyK7ngoRSx7zYQppYTCoctOmaz8M1btIveVAsT0GvieEkVMQlNfQr6MO+mS6J6U8fR2X2QxsvL2oaEA6oSGCcLcfDrGHxHG3KGmArbPqhqtWmWawDAi4RVUKqKG0GgFhI+1nwYt/DUFU8Q5VTy6cARFtt1RRxSV2VWzkCpcq9241ChFM2/aG5268IutXDGykkd2i/ACRHpk87jxjiKFEYmKYgRr0lzG6lSNmoBx+nG033QaDr8NtnmpUxFcqclOnkUkdku+lgeoVWv7wkvBJeqi/1r5w53U2R/D7LpoUyu6ekqA8c7gGx7wuVf8A1gdsdL4xF6OfpedGKSSdFI/ZreFWyL4TP/xFrdtF8T9JodMdkeEy3f2rfEgdF8z/ALSOL5AWw43S/SU/dHlIm/n6R/8AOcmbp/pKfujykHf0+qP/AJzir5gAXcn9Yvg32mumZFuR+sT3W+010xsmwvYC7a/UVPEf6RPRG3P1FTxH+kT0UmIZ4gNI3pJ0VJ1xXZREqm3aUd485Y7UxDBABzP2lVgyWqIBrrLLaWHdyqjrqemkllcOXu0g/ZabrVxlILcDwJkzeHF5aZA4nQeMEc9Sg2ZSe+/AxxMbUrVEDcAbmSfFpzWjcXZzDbMqOLnSTk2ED+43HOEOEojJGfQuGNuE4Mnk55xTg6KpJOmPUCVpkHWwgFtp713+HlDjGVMlM36EmZ1WrZ3ZupJnb4nNxueyUq5dCwsCd6avatDI1LAwD3ke9QzqzfEz0VOEbtCF+AOggbhm7QhZs99BK4H7Bloe2whNMMD7J8wR/njKFGYnW+n+GXm16lqX/sL/ACMGXrE6Cw+F/pObM/cTlsn/AMTyzADr/b+8RW2qqjKuo8bCVbKD7TMfjYfSMVCg4AecjYtEyvtWqQQHyDpT7N/EjX6yLhcG7tw04kkcR3dTHMLQPtFLnkGsAO+0lNVq8rfAzf7CPVLqMo0A5Dr17z3xjOed4kvUPFh5xJqkcXv3C01mJCAcYirWjRr9ZHeoOs1gocepzM5gKZeqi31dlUeLMAAPnO4h0K0wuUmxZmBbML6ZSOHK/wAZefh5hEfaVFXXMFJcC7AZ07SnQjg1jbhAnYz6PpDGi9NvCZnsCl/1Fh0Ln6/7zTqmtM+EAN3qP/Uq/db6/wDEpB1FmNCOi/CY9vbVzYt+6wmv4hrIx7pie2ambEVD/UfppDh2wrZqu6n6Sn7q+Ugb/fpG+HnLDdb9LT91fKVu/wD+kb4ecRfMAEbkfrE91vtNcMyLcj9YnunzE1yHLsL2BW16RNeppz+wnoUvhRc6T0HISjNUqRzPK2lUl1sTD56lzwX6mdqajFtlFovthYDKMzDtH6CT8TUW4A/5jnsrlHxjFCldsx+E+Y9Q81OTin0i2OD2NbQwOemetvkZF2Ds8qSz8ftLmq3KdByre08+Hn5FjeJPplnBXZY4YRTWvIuAxQZZ13sbkz2MftgkQfbGNt0s1MgcwR9JmDXBIPEGx8RNTxFYMhmYbVP51T3jPU8WVom12Ra1TQwK24/bhbUght0dqWzP2gZXYc9oQn2e2ggvhvaEJsELASmF+0aOizqUldCrcCPiO+UdfYFQDsVEbuZWTT4Xl2jxbPNOEZbA0mDtHdyox7dVAP6AWP1tF7V2JRp00Kls2axLN7VwTwtytyhHTlNtrt1VQkgIjMbcczcPov1hlihDE3XbC4pRso1pdCfmYhqT/wDkAE7VwhDEF208BGjhl55j4mcJIRUZBxdm7l4Rhq/8oA+p+ck/w624Rl6YvYQGGCxMWEkoYe081PlNRiOvtKeukMfw3QjHq3IIQT/UxAH+kwQdeyD0MMtxcRbEAdWVh5HzEaKTYT6FTWn8IJbBoWx2Ib3fKFWFa9MeEqdl0bYio3U+UCdWYs9pvamx7piGIe7uerE/WbDvLWy4dz/SfKYxeUxaCjZd2P0tP3V8pWb/AJ9Ub4ecs92f01P3R5Sq/EA+qt8POJH5igXuR+sX3T5ia2Zke4/6xfdPmJrZMOTYWcvPSE+LW5nolAMgoPD7YGGCUwT0ufEwC2JTz1VHTU/DhNIpLZVX5yfqPlLBgbLQjykkSxrHKZAjOewjdOpcz4N5pTuTO6q6JQFzHEFzGC1hGtnYsmoykcJ2emx/Vy29IXI6RZpRCcJHqG5tJOJbSQTUtrPQ9S8l44qEdsljjfY8EGVhM53iTLiGt+4A/b7TQaNYG/fpM/3trp6fsm9hY+N57Ho6yLCuf9RHK1y6Kao8E9tIS+kJM/ODW1cRlqXnqZn7SbK+ghDAQlwLXAg2tfM4MvcK3Ax8L9oy0WimKBjObSKQyi7dGJimD1apmrOTwzWPuJa/kZeZoMu/tN/Nf6sb/QD5w+VL2qIMj6SGXe5JPM3iH6eEUs4g1JnATEusaVNY80UiWmMeddBG3EeflG24iBsw0q3DCW26j5cQncbfIgytQamTthkemuOQJt36D7wxTbQL7PpPZj3pr4ROFSzset4xsCpeip7h5SeotAwg7vzWy4V+8W+cyYmaP+I1e1IL1I/vM0LToxL2jI2vdo+rJ7o8pT/iG3qp+HnLfdv9MnujylJ+Ip9VPw85FfMAIbjH1xfdPmJrZmQbiN64PdPmJrhMbJszAja+KYV6gB4H7CekLbres1PH7CegpCFVuhTGYuevlDVUqMb3yjl1sJQbrYUJQDv0uLyBtrfAqSlC1xoah4A905vJ8aPkNKfaX0WjNx0GpwjHg2vfO0kK6HrxmVLvFig4f0r3HK+h7rTS9l7RNWkGNuAOnfaeV6l6dhjgcoKmvwVxZJcqf2TarcorCKA3iLyOr3aPZstm5W1njelSccrj+UdORWibjqlhIFLtN4RvEYxXAsfGP7JZTbUfOdcoLN5fekhU+MReIoWp9nQ85ke0ldarq/EMb99zebTiUFj3iZLvgtsRfqo+hIn1HjP20ckupFOzwY20e1CDNB3bHtS+R9Csh4eEWBfSUWEpky4whlcfUQrRZK1o/TMiK0kIZSG7Ch2o3ZbwPlBmpyXoPrz/AM7oQVnIRiONj5Sgym+sl5MraQs3bPcpxBxi8s8EnMIJAnRO2nQJqBZypxEbC3IPT7ztTjFIO6FRANfukrZZtWBHAgj6X+0iFtfjJOzx+YO65v3FTKxjTQVs+gt0KubDIf6R5S9vBLcCtfDJ3C3yMKi0lJe5jGdfiTX1Re8n5CAZaE/4hYi+IUdAfqYJlp0Q6ihlo3Ld0+rp7o8pRfiO3qp8R5iXe7x9XT3R5Qf/ABJb1b4jznPH5CgluCfXB7p8xNdJmP7gH1we6fMTXSYcmzMzjbzes1fH7Cdkbb7+s1fe+wnoQFAu8FX0JojpbN0Eo2eenoXoc6HmgbobQ/JAPIFfkdJ6enNnScGmaOwiwFfMM3dLjC2IIPSdnp8n4KS8hndL4op8eioTYSJRZASULg2HA2E9PTt8ZL9xISfxROwuKxDXzL2baHOCTAPfRvz1HMJr8TPT0+hwJJdHJJ9g+plBtgjNaenpaejPQ/sEBsynlr8JYVKWVvrOz0pDQVoXTMkBp2elYhQ3iy2Rgq5iRa1wNPEwfq4llPaQA+9fynp6QzbElsR/GtyC/Wc/jH/p+U9PSKFPDGt0E7/Gn+UfOenoyFOjGi/s/WLGNXoRPT0cJzN05ybgB2we4j4Tk9GW0ZbNg/DiteiR0Yj63+8NyZ6ekp/JjGTfiBhStYPyOkEM09PS8fiFaNz2AfV090eUG/xKf1ceI852ekF8gAjuA3rg9w+Ymts09PTT2ZmXbfqetVfe+wnp6ehAf//Z;clipPath=inset(0% 0.55% 0.82% 34.73%);" parent="1" vertex="1">
          <mxGeometry x="149.26" y="225" width="179.4710743801653" height="183" as="geometry" />
        </mxCell>
      </root>
    </mxGraphModel>
  </diagram>
</mxfile>
